<?xml version="1.0" encoding="utf-8"?>
<!-- Generator: Adobe Illustrator 25.2.0, SVG Export Plug-In . SVG Version: 6.00 Build 0)  -->
<svg version="1.1" id="Layer_1" xmlns="http://www.w3.org/2000/svg" xmlns:xlink="http://www.w3.org/1999/xlink" x="0px" y="0px"
	 viewBox="0 0 348 159.5" style="enable-background:new 0 0 348 159.5;" xml:space="preserve">
<style type="text/css">
	.st0{fill:#0A4C58;}
	.st1{fill:#D1464B;}
	.st2{fill:#F37276;}
	.st3{display:none;}
	.st4{display:inline;fill:#F37276;}
	.st5{display:inline;fill:#0A4C58;}
</style>
<image style="display:none;overflow:visible;enable-background:new    ;" width="1164" height="911" xlink:href="AC208A0.jpeg"  transform="matrix(0.5 0 0 0.5 -735.2066 120.0466)">
</image>
<g>
	<path class="st0" d="M97.1,79.7c0,4.2-0.8,7.8-2.3,11s-3.7,5.7-6.6,7.4s-6.1,2.6-9.7,2.6s-6.9-0.8-9.7-2.5s-5-4.1-6.6-7.2
		s-2.4-6.7-2.5-10.7V78c0-4.2,0.8-7.9,2.3-11.1c1.5-3.2,3.7-5.7,6.6-7.4s6.1-2.6,9.8-2.6c3.6,0,6.8,0.9,9.7,2.6s5,4.2,6.6,7.3
		c1.6,3.2,2.4,6.8,2.4,10.9C97.1,77.7,97.1,79.7,97.1,79.7z M86.6,77.9c0-4.2-0.7-7.5-2.1-9.7s-3.4-3.3-6.1-3.3
		c-5.2,0-7.9,3.9-8.2,11.6v3.1c0,4.2,0.7,7.4,2.1,9.6s3.4,3.4,6.2,3.4c2.6,0,4.6-1.1,6-3.3s2.1-5.4,2.1-9.5V77.9L86.6,77.9z"/>
	<path class="st0" d="M115.9,57.5l9.5,29.7l9.5-29.7h13.5v42.7h-10.3v-10l1-20.4l-10.3,30.3H122l-10.3-30.4l1,20.4v10h-10.3V57.5
		H115.9z"/>
	<path class="st0" d="M181.4,82h-16.2v10.2h19.1v7.9H155V57.5h29.4v7.9h-19.2v9h16.2V82z"/>
</g>
<g>
	<path class="st1" d="M193.5,100.8h-6.7l4.4-25.4h6.7L193.5,100.8z M192,69c0-1.1,0.3-1.9,1-2.6s1.6-1,2.6-1s1.9,0.3,2.6,0.9
		s1.1,1.5,1.1,2.5s-0.3,1.8-1,2.5s-1.6,1.1-2.7,1.1c-1,0-1.9-0.3-2.6-0.9S192.1,70.1,192,69z"/>
	<path class="st1" d="M213.8,93.6c0.2-1.2-0.6-2.2-2.6-2.7l-2.1-0.5c-5.1-1.4-7.5-3.8-7.4-7.4c0.1-2.4,1.1-4.3,3.2-5.8
		s4.5-2.2,7.4-2.2s5.2,0.8,6.9,2.3s2.7,3.5,2.7,5.9h-6.6c0-2.2-1.1-3.3-3.2-3.3c-1,0-1.9,0.3-2.7,0.8s-1.2,1.2-1.4,2.1
		c-0.2,1.2,0.7,2.1,2.8,2.7l0.9,0.2c2.2,0.5,3.8,1.1,4.9,1.8s2,1.5,2.6,2.5s0.9,2.2,0.9,3.5c-0.1,1.6-0.6,3-1.6,4.2
		s-2.4,2.1-4.1,2.8s-3.5,1-5.4,0.9c-2.8,0-5.2-0.8-7-2.4s-2.8-3.6-2.9-6.2l6.2,0.1c0.1,2.4,1.4,3.7,3.9,3.7c1.2,0,2.2-0.2,3-0.8
		S213.6,94.5,213.8,93.6z"/>
</g>
<g>
	<g>
		<path class="st1" d="M220.9,131.4c-0.1,3-0.9,5.6-2.4,7.9c-1.5,2.3-3.5,4-6.2,5.3s-5.7,1.9-9.1,1.9c-5.6,0-10-1.8-13.2-5.5
			s-4.8-8.8-4.8-15.5v-2.1c0-4.2,0.7-7.8,2.2-11c1.4-3.1,3.6-5.6,6.3-7.3s5.9-2.6,9.5-2.6c5.2,0,9.3,1.4,12.5,4.1
			c3.1,2.7,4.9,6.5,5.4,11.3h-10.2c-0.1-2.6-0.7-4.5-2-5.6c-1.2-1.1-3.1-1.7-5.6-1.7c-2.6,0-4.4,1-5.6,2.9s-1.8,5-1.9,9.2v3
			c0,4.6,0.6,7.8,1.7,9.8c1.1,1.9,3.1,2.9,5.9,2.9c2.4,0,4.2-0.6,5.4-1.7s1.9-2.9,2-5.3L220.9,131.4L220.9,131.4z"/>
		<path class="st1" d="M261.9,125.4c0,4.2-0.8,7.8-2.3,11s-3.7,5.7-6.6,7.4s-6.1,2.6-9.7,2.6s-6.9-0.8-9.7-2.5s-5-4.1-6.6-7.2
			c-1.6-3.1-2.4-6.7-2.5-10.7v-2.4c0-4.2,0.8-7.9,2.3-11.1s3.7-5.7,6.6-7.4c2.9-1.7,6.1-2.6,9.8-2.6c3.6,0,6.8,0.9,9.7,2.6
			s5,4.2,6.6,7.3c1.6,3.2,2.4,6.8,2.4,10.9V125.4z M251.4,123.7c0-4.2-0.7-7.5-2.1-9.7c-1.4-2.2-3.4-3.3-6.1-3.3
			c-5.2,0-7.9,3.9-8.2,11.6v3.1c0,4.2,0.7,7.4,2.1,9.6s3.4,3.4,6.2,3.4c2.6,0,4.6-1.1,6-3.3s2.1-5.4,2.1-9.5V123.7L251.4,123.7z"/>
		<path class="st1" d="M303.3,125.4c0,4.2-0.8,7.8-2.3,11s-3.7,5.7-6.6,7.4s-6.1,2.6-9.7,2.6s-6.9-0.8-9.7-2.5s-5-4.1-6.6-7.2
			c-1.6-3.1-2.4-6.7-2.5-10.7v-2.4c0-4.2,0.8-7.9,2.3-11.1s3.7-5.7,6.6-7.4c2.9-1.7,6.1-2.6,9.8-2.6c3.6,0,6.8,0.9,9.7,2.6
			c2.8,1.7,5,4.2,6.6,7.3c1.6,3.2,2.4,6.8,2.4,10.9L303.3,125.4L303.3,125.4z M292.9,123.7c0-4.2-0.7-7.5-2.1-9.7s-3.4-3.3-6.1-3.3
			c-5.2,0-7.9,3.9-8.2,11.6v3.1c0,4.2,0.7,7.4,2.1,9.6c1.4,2.2,3.5,3.4,6.2,3.4c2.6,0,4.6-1.1,6-3.3s2.1-5.4,2.1-9.5V123.7
			L292.9,123.7z"/>
		<path class="st1" d="M318.9,138h17.9v7.9h-28.2v-42.7h10.3L318.9,138L318.9,138z"/>
	</g>
</g>
<g>
	<path class="st2" d="M6.2,44.7v54.7h49.2V44.7H6.2z M38.2,94.6V78.5H22.7v16.1H10.2V46.3h12.7v19.2h15.5V46.3h13v48.3H38.2z"/>
	<polygon class="st2" points="55.8,45.3 5.9,45.3 30.9,14.1 	"/>
	<polygon class="st0" points="36.5,21 25.3,21.1 30.9,14.1 	"/>
</g>
<g class="st3">
	<path class="st4" d="M13.8,44.7v54.7h41.6V44.7H13.8z M53.9,97.7h-13V78.5H27.8v19.2h-13V46.3h13.1v19.2H41V46.3h13.1v51.4H53.9z"
		/>
	<polygon class="st4" points="55.8,45.3 13.6,45.3 34.7,14.1 	"/>
	<polygon class="st5" points="39.5,21 30,21.1 34.7,14.1 	"/>
</g>
</svg>
